{
    "asset" : {
        "generator" : "Khronos glTF Blender I/O v3.4.50",
        "version" : "2.0"
    },
    "scene" : 0,
    "scenes" : [
        {
            "name" : "Scene",
            "nodes" : [
                0
            ]
        }
    ],
    "nodes" : [
        {
            "mesh" : 0,
            "name" : "LearnAndDev"
        }
    ],
    "meshes" : [
        {
            "name" : "LearnAndDev",
            "primitives" : [
                {
                    "attributes" : {
                        "POSITION" : 0,
                        "TEXCOORD_0" : 1,
                        "NORMAL" : 2
                    },
                    "indices" : 3
                }
            ]
        }
    ],
    "accessors" : [
        {
            "bufferView" : 0,
            "componentType" : 5126,
            "count" : 6253,
            "max" : [
                1570.15283203125,
                2698.5791015625,
                2671.854736328125
            ],
            "min" : [
                -248.86700439453125,
                -565.993408203125,
                -2671.854736328125
            ],
            "type" : "VEC3"
        },
        {
            "bufferView" : 1,
            "componentType" : 5126,
            "count" : 6253,
            "type" : "VEC2"
        },
        {
            "bufferView" : 2,
            "componentType" : 5126,
            "count" : 6253,
            "type" : "VEC3"
        },
        {
            "bufferView" : 3,
            "componentType" : 5123,
            "count" : 26535,
            "type" : "SCALAR"
        }
    ],
    "bufferViews" : [
        {
            "buffer" : 0,
            "byteLength" : 75036,
            "byteOffset" : 0,
            "target" : 34962
        },
        {
            "buffer" : 0,
            "byteLength" : 50024,
            "byteOffset" : 75036,
            "target" : 34962
        },
        {
            "buffer" : 0,
            "byteLength" : 75036,
            "byteOffset" : 125060,
            "target" : 34962
        },
        {
            "buffer" : 0,
            "byteLength" : 53070,
            "byteOffset" : 200096,
            "target" : 34963
        }
    ],
    "buffers" : [
        {
            "byteLength" : 253168,
            "uri" : "data:application/octet-stream;base64,"
        }
    ]
}
